<?xml version="1.0" encoding="utf-8"?>
<!-- Generator: Adobe Illustrator 22.1.0, SVG Export Plug-In . SVG Version: 6.00 Build 0)  -->
<svg version="1.1" id="Layer_1" xmlns="http://www.w3.org/2000/svg" xmlns:xlink="http://www.w3.org/1999/xlink" x="0px" y="0px"
	 viewBox="0 0 243.2 214.4" style="enable-background:new 0 0 243.2 214.4;" xml:space="preserve">
<style type="text/css">
	.st0{fill:#FFFFFF;}
	.st1{clip-path:url(#SVGID_2_);}
	.st2{fill:#FFFFFF;stroke:#231F20;stroke-width:0.5;stroke-miterlimit:10;}
	.st3{fill:#F1E90B;}
	.st4{fill:#A5833B;}
	.st5{fill:#231F20;}
	.st6{fill:none;stroke:#231F20;stroke-width:0.5;stroke-miterlimit:10;}
	.st7{fill:#656665;stroke:#231F20;stroke-width:0.5;stroke-miterlimit:10;}
	.st8{fill:#7F7F7F;stroke:#231F20;stroke-width:0.5;stroke-miterlimit:10;}
	.st9{fill:none;stroke:#231F20;stroke-miterlimit:10;}
	.st10{fill:none;stroke:#231F20;stroke-width:4;stroke-miterlimit:10;}
</style>
<title>logo_dark_background</title>
<g id="Logo">
	<circle class="st0" cx="122" cy="108" r="106.3"/>
	<g>
		<defs>
			<circle id="SVGID_1_" cx="122" cy="108" r="106.3"/>
		</defs>
		<clipPath id="SVGID_2_">
			<use xlink:href="#SVGID_1_"  style="overflow:visible;"/>
		</clipPath>
		<g class="st1">
			<g id="Layer_9">
				<g id="Layer_8">
					<path class="st2" d="M88.6,57.5c-2.2-7.3-6-14.1-11.3-19.7c-2.2-2.4-4.7-4.5-7.4-6.3c4.1-0.5,8.2,0.2,11.9,2.1
						c7.4,4.1,6.9,11.1,14.8,15.1c3.9,2,4.4,0.4,10.4,2.8l0.5,0.2c4.4,2,8.5,4.6,12.1,7.8c6.5,6,18.4,22,13.3,31.4
						c-0.2,0.4-0.5,0.9-0.8,1.2l-8.7-5.1l0.8,8.6l-6.8-2l1.2,6.8l-6.1-2.9l-1.7,7.4l-3.9-4l-2,7.6c-2.1-10.1-6.1-19.8-11.6-28.5
						c-5.7-8.9-12-15.1-18.9-21.8C68.3,52.4,63,48,59.3,45.1L88.6,57.5z"/>
					<path class="st3" d="M71.4,31.9c2-0.2,4-0.1,5.9,0.4c3.6,0.9,6.8,2.9,9.1,5.8l0.9,1.4c0.4,0.6,0.7,1.1,1.3,1.9
						c0.6,0.8,0.9,1.3,1.1,1.6c0.9,1.3,0.9,1.2,1.4,2c0.5,0.8,0.3,0.5,1.5,2.3l0.7,1.2c0.6,1,1,1.9,1.1,2.1
						c1.5,4.7,0.9,9.9-1.9,14.1c-1.5,2.3-3.5,4.1-5.9,5.4l-2.4-2.6l-2.9-2.9l-2.6-2.6c-0.4-0.4-1.4-1.4-2.7-2.6
						c-1.3-1.2-2.9-2.7-4.8-4.3c-4.1-3.6-8.4-7.1-10.9-9.1l27.8,12l1.1,0.4c-2.2-7.8-6.3-15-11.7-21C75.5,35.4,73.5,33.5,71.4,31.9z
						"/>
					<path class="st4" d="M132.1,91.8c0.4-0.6,0.8-1.3,1-2c0.2-0.6,0.4-1.2,0.5-1.9c0.3-1.7,0.2-3.5-0.1-5.2c-0.4-2-1-3.9-1.9-5.8
						c-1.1-2.6-2.5-5.1-4-7.4c-3.6-5.5-8.2-10.1-13.7-13.7c-2.3-1.5-4.7-2.8-7.3-3.8c-0.9-0.4-1.7-0.7-2.6-0.9h-0.2
						c-0.9-0.2-1.6-0.4-2-0.4c-1.9-0.3-1.9-0.2-2.6-0.4c-0.9-0.2-1.7-0.5-2.5-0.8c-0.6-0.3-1.3-0.6-1.9-1c-0.8-0.5-1.6-1.2-2.3-1.9
						c-0.7-0.6-1.3-1.3-1.9-2.1l0.9,1.9c1.3,2.8,2.3,5.3,2.1,7c-0.2,2-1.2,1.6-1.6,3.7c-0.7,3.2,1.3,4.9,0.1,7.5
						c-0.3,0.7-0.8,1.4-1.4,2c-1,0.9-2,1.7-3.1,2.5c-0.5,0.4-0.9,0.8-1.2,1c6.3-0.7,12.7,0.1,18.7,2.2c4.2,1.3,8,3.5,11.3,6.3
						c2.5,2.2,4.7,4.8,6.4,7.7l3.5,2.1C128.4,89.5,130.3,90.6,132.1,91.8z"/>
					<path class="st0" d="M108.5,59.3c-0.7-1.2-1.7-2.2-3-2.7c-1.7-0.6-2.8,0.1-4.6-0.4c-1.4-0.4-2.7-1.4-3.5-2.6
						c-0.5,2.2,0,4.6,1.4,6.3C101.7,62.3,105.9,62,108.5,59.3z"/>
					<path class="st5" d="M101.4,59.6c1,0,1.9-0.8,1.9-1.9s-0.8-1.9-1.9-1.9c-1,0-1.9,0.8-1.9,1.9S100.4,59.6,101.4,59.6z"/>
					<path class="st6" d="M109.5,60.5c-0.9-2-2.6-3.6-4.7-4.2c-2-0.5-3.4,0.5-5.1-0.4c-1.3-0.7-2.2-1.9-2.6-3.3"/>
				</g>
				<g id="Layer_7">
					<path class="st7" d="M118.1,128.6c8.8-8.2,16.7-10.7,22.2-11.5c10.1-1.4,16.1,2.4,27-1.4c3.7-1.3,8.6-3.1,11.9-7.9
						c5.9-8.6,1.6-19.6,1-21.2c15.9,3.6,27.1,15.3,27.6,27.1c-0.1,10.6-5.2,20.5-13.9,26.5c0.7-1.1,1.2-2.2,1.7-3.4
						c0.6-1.7,0.9-3.4,1-5.2c-1,1.9-2.2,3.8-3.5,5.6c-1.4,1.9-2.9,3.6-4.5,5.3c0.6-1.6,1.1-3.3,1.4-5c0.2-1.2,0.4-2.5,0.5-3.7
						c-1,2.4-2.4,4.6-4.1,6.5c-0.9,1-2,1.9-3.1,2.7c0.8-1.3,1.3-2.8,1.5-4.4c0.1-1.2,0-2.4-0.3-3.6c-0.9,2.3-2.1,4.5-3.7,6.4
						c-1.4,1.8-3.1,3.4-5,4.7c1-1.4,1.7-3,2.1-4.7c0.4-1.4,0.5-2.9,0.5-4.3c-0.6,1.8-1.5,3.4-2.6,4.9c-1.8,2.4-4.1,4.3-6.8,5.6
						c1.3-1.6,2.2-3.5,2.6-5.6c0.2-1.2,0.3-2.5,0.1-3.7c-2,5.5-6.5,9.8-12.2,11.3c2.8-1.2,4.9-3.5,5.8-6.4c0.3-1.2,0.4-2.5,0.2-3.7
						c-1.7,4.2-5,7.6-9.1,9.4c1.3-1.7,2.2-3.7,2.4-5.8c0.1-1.2,0-2.5-0.3-3.7c-0.5,2.7-1.8,5.2-3.6,7.3c-1.6,1.8-3.6,3.2-5.9,4
						c1.8-1.5,3-3.6,3.5-5.9c0.2-1.3,0.1-2.6-0.2-3.9c-1.9,5.7-6.6,9.9-12.4,11.1c3.4-2.4,5.6-6.3,5.8-10.5c-2.7,4-6.4,7.1-10.7,9.1
						c-2.1,1-4.3,1.6-6.6,2c1.2-1.3,2.1-2.9,2.7-4.5c0.8-2.2,1-4.5,0.6-6.8c0.3,1.7,0.1,3.4-0.7,4.9c-1.4,2.4-3.8,3.9-6.6,4.2
						l3.8-4.2c0.9-5.8,1.9-11.5,2.7-17.3l-11.8,16.4C118.8,139.7,118.4,134.2,118.1,128.6z"/>
					<path class="st7" d="M119,128.6c-8.9-8.2-16.7-10.7-22.2-11.5c-10.1-1.4-16.1,2.4-27-1.4c-3.7-1.3-8.6-3.1-11.9-7.9
						c-5.9-8.6-1.7-19.6-1-21.2c-15.9,3.6-27.1,15.3-27.6,27.1c0,7.6,2.7,15,7.6,20.8c1.8,2.2,3.9,4.1,6.2,5.7
						c-1.6-2.6-2.5-5.6-2.5-8.6c1,1.9,2.2,3.8,3.5,5.6c1.4,1.9,2.9,3.6,4.5,5.3c-1-2.8-1.6-5.8-1.9-8.8c1,2.4,2.3,4.6,4,6.5
						c0.9,1,1.9,2,3,2.8c-1.4-2.4-1.9-5.3-1.2-8c0.9,2.3,2.1,4.5,3.7,6.4c1.4,1.8,3.1,3.4,5,4.7c-1-1.4-1.7-3-2.2-4.6
						c-0.4-1.4-0.5-2.9-0.5-4.3c0.6,1.8,1.5,3.4,2.7,4.9c1.8,2.4,4.1,4.3,6.8,5.6c-1.3-1.6-2.2-3.5-2.6-5.6c-0.2-1.2-0.2-2.5,0-3.7
						c2,5.5,6.5,9.8,12.2,11.3c-2.8-1.2-4.9-3.5-5.8-6.4c-0.3-1.2-0.4-2.5-0.1-3.7c1.1,2.8,3,5.3,5.4,7.2c1.1,0.9,2.4,1.7,3.7,2.2
						c-2.2-2.7-3-6.2-2.1-9.6c1,5.2,4.6,9.4,9.5,11.3c-1.8-1.5-3-3.6-3.4-5.9c-0.2-1.3-0.2-2.6,0.1-3.9c0.9,2.9,2.6,5.4,4.8,7.4
						c2.2,1.9,4.8,3.2,7.6,3.8c-2-1.4-3.6-3.3-4.6-5.6c-0.7-1.6-1.2-3.3-1.2-5c2.6,4,6.3,7.1,10.6,9.1c2.1,1,4.3,1.6,6.6,2
						c-1.2-1.3-2.1-2.8-2.7-4.5c-0.8-2.2-1-4.5-0.6-6.8c-0.3,1.7,0,3.4,0.7,4.9c1.4,2.4,3.9,3.9,6.7,4.1l-3.7-4.2
						c-0.9-5.8-1.9-11.5-2.8-17.3l11.8,16.4C118.3,139.7,118.6,134.2,119,128.6z"/>
				</g>
				<g id="Layer_1_1_">
					<path class="st8" d="M130.1,249.9l-9.6-7.7l-4.3-3.4c-6.9-5.6-9.5-7.9-11.1-12.1c-1.2-2.6-1.4-5.5-0.8-8.3
						c0.5-1.9,1.6-3.7,3-5.1c4.7,4.2,8.9,7.9,12.3,10.7c9.1,7.6,12.3,9.8,13.3,14.3C133.5,242.3,132.5,246.5,130.1,249.9z"/>
					<line class="st9" x1="142.3" y1="161.8" x2="142.3" y2="161.8"/>
					<path class="st8" d="M130.1,233.2l-9.6-7.7l-4.3-3.4c-6.9-5.6-9.5-7.9-11.1-12.1c-1.2-2.6-1.4-5.5-0.8-8.3
						c0.5-1.9,1.6-3.7,3-5.1c4.7,4.2,8.9,7.9,12.3,10.7c9.1,7.6,12.3,9.8,13.3,14.3C133.5,225.7,132.5,229.8,130.1,233.2z"/>
					<path class="st8" d="M130.1,216.5l-9.6-7.7l-4.3-3.4c-6.9-5.6-9.5-7.9-11.1-12.1c-1.2-2.6-1.4-5.5-0.8-8.3
						c0.5-1.9,1.6-3.7,3-5.1c4.7,4.2,8.9,7.9,12.3,10.7c9.1,7.6,12.3,9.8,13.3,14.3C133.5,209,132.5,213.1,130.1,216.5z"/>
					<path class="st5" d="M132.9,243.7c0.3,0,0.5-0.2,0.5-0.5c0-0.3-0.2-0.5-0.5-0.5s-0.5,0.2-0.5,0.5
						C132.4,243.5,132.6,243.7,132.9,243.7z"/>
					<path class="st5" d="M132.9,243.4c0.3,0,0.5-0.2,0.5-0.5s-0.2-0.5-0.5-0.5c-0.3,0-0.5,0.2-0.5,0.5S132.7,243.4,132.9,243.4z"/>
					<path class="st5" d="M132.8,244c0.3,0,0.5-0.2,0.5-0.5c0-0.3-0.2-0.5-0.5-0.5s-0.5,0.2-0.5,0.5
						C132.3,243.8,132.5,244,132.8,244z"/>
					<path class="st5" d="M132.8,244c0.3,0,0.5-0.2,0.5-0.5s-0.2-0.5-0.5-0.5s-0.5,0.2-0.5,0.5S132.5,244,132.8,244z"/>
					<path class="st5" d="M132.8,244.1c0.3,0,0.5-0.2,0.5-0.5s-0.2-0.5-0.5-0.5s-0.5,0.2-0.5,0.5S132.5,244.1,132.8,244.1z"/>
					<path class="st5" d="M132.8,244.1c0.3,0,0.5-0.2,0.5-0.5s-0.2-0.5-0.5-0.5s-0.5,0.2-0.5,0.5S132.5,244.1,132.8,244.1z"/>
					<path class="st5" d="M132.8,244.2c0.3,0,0.5-0.2,0.5-0.5s-0.2-0.5-0.5-0.5s-0.5,0.2-0.5,0.5S132.5,244.2,132.8,244.2z"/>
					<path class="st8" d="M130.1,199.8l-9.6-7.7l-4.3-3.4c-6.9-5.6-9.5-7.9-11.1-12.1c-1.2-2.6-1.4-5.5-0.8-8.3
						c0.5-1.9,1.6-3.7,3-5.1c4.7,4.2,8.9,7.9,12.3,10.7c9.1,7.6,12.3,9.8,13.3,14.3C133.5,192.3,132.5,196.5,130.1,199.8z"/>
					<line class="st9" x1="143.2" y1="96.2" x2="143.2" y2="96.2"/>
					<path class="st8" d="M130.1,183.2l-9.6-7.7l-4.3-3.4c-6.9-5.6-9.5-7.9-11.1-12.1c-1.2-2.6-1.4-5.5-0.8-8.3
						c0.5-1.9,1.6-3.7,3-5.1c4.7,4.2,8.9,7.9,12.3,10.7c9.1,7.6,12.3,9.8,13.3,14.3C133.5,175.6,132.5,179.8,130.1,183.2z"/>
					<path class="st8" d="M130.1,166.5l-9.6-7.7l-4.3-3.4c-6.9-5.6-9.5-7.9-11.1-12.1c-1.2-2.6-1.4-5.5-0.8-8.3
						c0.5-1.9,1.6-3.7,3-5.1c4.7,4.2,8.9,7.9,12.3,10.7c9.1,7.6,12.3,9.8,13.3,14.3C133.5,159,132.5,163.1,130.1,166.5z"/>
					<path class="st8" d="M130.1,149.8l-9.6-7.7l-4.3-3.4c-6.9-5.6-9.5-7.9-11.1-12.1c-1.2-2.6-1.4-5.5-0.8-8.3
						c0.5-1.9,1.6-3.7,3-5.1c4.7,4.2,8.9,7.9,12.3,10.7c9.1,7.6,12.3,9.8,13.3,14.3C133.5,142.3,132.5,146.4,130.1,149.8z"/>
					<path class="st8" d="M130.1,133.1l-9.6-7.7l-4.3-3.4c-6.9-5.6-9.5-7.9-11.1-12.1c-1.2-2.6-1.4-5.5-0.8-8.3
						c0.5-1.9,1.6-3.7,3-5.1c4.7,4.2,8.9,7.9,12.3,10.7c9.1,7.6,12.3,9.8,13.3,14.3C133.5,125.6,132.5,129.8,130.1,133.1z"/>
					<path class="st8" d="M130.1,116.5l-9.6-7.7l-4.3-3.4c-6.9-5.6-9.5-7.9-11.1-12.1c-1.2-2.6-1.4-5.5-0.8-8.3
						c0.5-1.9,1.6-3.7,3-5.1c4.7,4.2,8.9,7.9,12.3,10.7c9.1,7.6,12.3,9.8,13.3,14.3C133.5,108.9,132.5,113.1,130.1,116.5z"/>
				</g>
				<g id="Layer_2_1_">
					<path class="st2" d="M149.4,57.5c2.2-7.3,6-14.1,11.3-19.7c2.2-2.4,4.7-4.5,7.4-6.3c-4.1-0.5-8.3,0.2-11.9,2.1
						c-7.4,4.1-6.9,11.1-14.8,15.1c-3.9,2-4.4,0.4-10.4,2.8l-0.5,0.2c-4.4,1.9-8.5,4.6-12.1,7.8c-0.9,0.9-1.5,1.6-2.4,2.6
						c-4.4,4.6-7.9,10.1-10.3,16c-1.3,3.3-1.8,6.8-1.6,10.2c0.1,0.8,0.2,1.6,0.4,2.4l7.9-0.3l-3.2,4l9.7-0.4v6.4l6.8-1.4l1.7,5.9
						l3.5-3.1l1.9,9.5c0.2-0.8,0.4-1.5,0.5-2.3c0-0.2,0-0.5,0-1c0-1.1,0.1-1.9,0.1-2.1c0-1.1,0-1.9,0-1.9
						c0.4-17.4,30.3-45.7,30.3-45.7c3.4-3.2,8.5-7.8,15.1-13.1L149.4,57.5z"/>
					<g id="Layer_3">
						<path class="st3" d="M166.6,31.9c-2-0.2-4-0.1-5.9,0.4c-3.6,0.9-6.8,2.9-9.1,5.8c0,0-0.4,0.6-0.9,1.4l-1.3,1.9l-1.1,1.6
							c-0.9,1.3-0.9,1.2-1.4,2c-0.5,0.8-0.3,0.5-1.4,2.3l-0.7,1.2c-0.6,1-1,1.9-1.1,2.1c-1.4,4.8-0.7,9.9,1.9,14.1
							c1.4,2.4,3.4,4.5,5.7,6.1c1.9-2.2,3.9-4.4,5.9-6.6c5.9-6.3,12.2-12.1,18.9-17.5c-4.8,2.1-9.6,4.1-14.5,6.2
							c-4.4,1.9-8.7,3.7-13,5.4c2.3-7.8,6.4-15,11.9-20.9C162.4,35.4,164.4,33.5,166.6,31.9z"/>
					</g>
				</g>
				<g id="Layer_4">
					<path class="st4" d="M104.7,90.4c-0.2-0.8-0.3-1.7-0.4-2.6c-0.2-1.7-0.1-3.4,0.1-5.2c0.4-2,1-3.9,1.9-5.8
						c1.1-2.6,2.5-5.1,4.1-7.4c3.6-5.5,8.2-10.1,13.7-13.7c2.3-1.5,4.7-2.8,7.3-3.9c0.9-0.4,1.7-0.7,2.6-0.9h0.2
						c0.9-0.2,1.6-0.4,2-0.4c1.9-0.3,1.9-0.2,2.6-0.4c0.9-0.2,1.7-0.5,2.6-0.8c0.6-0.3,1.3-0.6,1.9-1c0.8-0.5,1.6-1.2,2.3-1.9
						c0.7-0.6,1.3-1.3,1.9-2.1c-0.4,0.7-0.7,1.4-0.9,1.9c-1.2,2.2-1.9,4.6-2.1,7c0.3,2,1.2,1.6,1.7,3.7c0.7,3.2-1.3,4.9-0.1,7.5
						c0.4,0.7,0.8,1.4,1.3,2c0.5,0.7,1,1.4,1.6,2c0.7,0.8,1.6,1.5,2.5,2.1c-1.6-1.4-3.7-2.1-5.8-1.7c-1,0.2-1.9,0.7-2.6,1.4l-3,3.7
						l0.4-3.5l-7.1,7.7l2.7-6.9l-9.6,10.2l1.7-6.7l-10.7,11.3l4.1-7.4c-4,2.8-6.9,6.8-8.2,11.5L104.7,90.4z"/>
				</g>
				<g id="Layer_5">
					<path class="st0" d="M129.4,59.3c0.7-1.2,1.7-2.2,3-2.7c1.7-0.6,2.8,0.1,4.6-0.4c1.4-0.4,2.7-1.4,3.5-2.6
						c0.5,2.2,0,4.6-1.4,6.3C136.2,62.3,132,62,129.4,59.3z"/>
					<path class="st5" d="M136.6,59.6c1,0,1.9-0.8,1.9-1.9s-0.8-1.9-1.9-1.9c-1,0-1.9,0.8-1.9,1.9S135.5,59.6,136.6,59.6z"/>
					<path class="st6" d="M128.5,60.5c0.9-2,2.6-3.6,4.7-4.2c2-0.5,3.3,0.5,5.1-0.4c1.3-0.7,2.2-1.9,2.6-3.3"/>
				</g>
			</g>
		</g>
	</g>
	<circle class="st10" cx="122" cy="108" r="106.3"/>
</g>
</svg>
